M48
; DRILL file {KiCad (6.0.8)} date Sat Jan 21 21:03:50 2023
; FORMAT={-:-/ absolute / metric / decimal}
; #@! TF.CreationDate,2023-01-21T21:03:50+01:00
; #@! TF.GenerationSoftware,Kicad,Pcbnew,(6.0.8)
; #@! TF.FileFunction,Plated,1,2,PTH
FMAT,2
METRIC
; #@! TA.AperFunction,Plated,PTH,ViaDrill
T1C0.400
; #@! TA.AperFunction,Plated,PTH,ComponentDrill
T2C0.500
; #@! TA.AperFunction,Plated,PTH,ComponentDrill
T3C0.700
; #@! TA.AperFunction,Plated,PTH,ComponentDrill
T4C0.730
; #@! TA.AperFunction,Plated,PTH,ComponentDrill
T5C0.750
; #@! TA.AperFunction,Plated,PTH,ComponentDrill
T6C0.800
; #@! TA.AperFunction,Plated,PTH,ComponentDrill
T7C0.890
; #@! TA.AperFunction,Plated,PTH,ComponentDrill
T8C0.900
; #@! TA.AperFunction,Plated,PTH,ComponentDrill
T9C0.950
; #@! TA.AperFunction,Plated,PTH,ComponentDrill
T10C1.000
; #@! TA.AperFunction,Plated,PTH,ComponentDrill
T11C1.900
; #@! TA.AperFunction,Plated,PTH,ComponentDrill
T12C2.010
; #@! TA.AperFunction,Plated,PTH,ComponentDrill
T13C3.000
; #@! TA.AperFunction,Plated,PTH,ComponentDrill
T14C3.400
; #@! TA.AperFunction,Plated,PTH,ComponentDrill
T15C3.500
%
G90
G05
T1
X55.118Y-60.058
X56.134Y-60.058
X65.405Y-79.997
X75.518Y-94.094
X78.105Y-81.87
X83.947Y-88.086
X86.614Y-106.032
X91.694Y-72.504
X91.694Y-73.774
X96.35Y-100.577
X96.393Y-102.476
X98.298Y-95.618
X101.07Y-105.723
X105.029Y-98.761
X105.031Y-105.417
X105.156Y-93.967
X106.045Y-94.951
X108.204Y-108.159
X108.223Y-106.516
X108.458Y-101.682
X109.728Y-101.809
X114.3Y-92.951
X115.824Y-87.109
X122.809Y-102.984
X155.067Y-96.888
X155.067Y-98.031
T2
X62.968Y-50.425
X68.048Y-50.425
T3
X130.222Y-89.909
X130.222Y-97.529
X130.222Y-102.609
X130.222Y-107.689
X137.843Y-89.909
X137.843Y-97.529
X137.843Y-102.609
X137.843Y-107.689
X145.463Y-89.909
X145.463Y-97.529
X145.463Y-102.609
X145.463Y-107.689
X153.082Y-89.909
X153.082Y-97.529
X153.082Y-102.609
X153.082Y-107.689
T4
X52.737Y-102.832
X52.737Y-105.372
X52.737Y-107.912
X52.737Y-110.452
X60.761Y-102.832
X60.761Y-105.372
X60.761Y-107.912
X60.761Y-110.452
T5
X118.877Y-87.363
X120.65Y-90.157
X120.65Y-91.427
X120.65Y-92.697
X126.497Y-87.363
T6
X59.69Y-73.147
X59.69Y-75.647
X60.365Y-55.266
X60.428Y-50.425
X62.865Y-55.266
X70.138Y-82.059
X70.138Y-84.059
X70.138Y-86.059
X70.138Y-88.059
X70.138Y-90.059
X70.138Y-92.059
X70.138Y-94.059
X70.138Y-96.059
X70.588Y-50.425
X78.105Y-72.131
X78.105Y-74.631
T7
X105.918Y-49.083
X108.458Y-49.083
X138.355Y-49.083
X140.895Y-49.083
T8
X52.075Y-50.406
X54.615Y-50.406
T9
X52.765Y-120.087
X55.265Y-120.087
X57.765Y-120.087
X64.175Y-120.087
X66.675Y-120.087
X69.175Y-120.087
X71.675Y-120.087
X78.125Y-120.087
X80.625Y-120.087
X83.125Y-120.087
X89.575Y-120.08
X90.103Y-81.885
X92.075Y-120.08
X92.603Y-81.885
X94.575Y-120.08
X95.103Y-81.885
X97.603Y-81.885
X101.005Y-111.825
X103.505Y-111.825
X105.958Y-69.783
X106.005Y-111.825
X108.458Y-69.783
X110.958Y-69.783
X118.845Y-120.08
X121.345Y-120.08
X123.845Y-120.08
X124.159Y-82.918
X126.345Y-120.08
X126.659Y-82.918
X128.845Y-120.08
X129.159Y-82.918
X131.345Y-120.08
X137.868Y-120.097
X138.395Y-69.783
X140.368Y-120.097
X140.895Y-69.783
X142.868Y-120.097
X143.395Y-69.783
X145.368Y-120.097
X147.868Y-120.097
X150.368Y-120.097
X154.345Y-82.886
X156.845Y-82.886
X156.858Y-120.097
X159.345Y-82.886
X159.358Y-120.097
X161.858Y-120.097
T10
X60.33Y-65.301
X62.87Y-65.301
X65.41Y-65.301
X67.945Y-65.332
X67.95Y-65.301
X73.025Y-65.332
X76.28Y-40.231
X78.105Y-65.332
X78.731Y-85.064
X78.731Y-87.605
X78.731Y-90.144
X78.78Y-40.231
X80.645Y-65.332
X81.271Y-85.064
X81.271Y-87.605
X81.271Y-90.144
X86.131Y-89.547
X86.131Y-92.087
X86.131Y-94.627
X86.131Y-97.167
X86.131Y-99.707
X86.131Y-102.247
X100.985Y-120.08
X103.485Y-120.08
X109.855Y-120.08
X112.355Y-120.08
X126.365Y-100.031
X126.365Y-102.571
X141.605Y-100.031
X141.605Y-102.571
X156.972Y-91.786
X156.972Y-94.326
X157.48Y-107.651
X157.48Y-110.191
X161.417Y-91.781
X161.417Y-94.321
X161.925Y-107.651
X161.925Y-110.191
T11
X52.395Y-88.059
T12
X103.378Y-44.003
X113.538Y-44.003
X135.815Y-44.003
X145.975Y-44.003
T13
X61.008Y-45.615
T14
X69.895Y-45.646
X69.895Y-100.646
X162.895Y-45.646
X162.895Y-100.646
T15
X52.395Y-39.646
X52.395Y-127.646
X95.958Y-39.883
X95.958Y-74.883
X120.958Y-39.883
X120.958Y-74.883
X128.395Y-39.883
X128.395Y-74.883
X153.395Y-39.883
X153.395Y-74.883
X162.395Y-39.646
X162.395Y-127.646
T10
X82.445Y-46.396G85X82.445Y-48.396
G05
X88.145Y-44.396G85X86.145Y-44.396
G05
X88.145Y-50.396G85X86.145Y-50.396
G05
T0
M30
