G04 #@! TF.GenerationSoftware,KiCad,Pcbnew,(6.0.8)*
G04 #@! TF.CreationDate,2023-01-21T21:03:47+01:00*
G04 #@! TF.ProjectId,HB-UNI-SEN-POOL_2023_05,48422d55-4e49-42d5-9345-4e2d504f4f4c,rev?*
G04 #@! TF.SameCoordinates,Original*
G04 #@! TF.FileFunction,Soldermask,Top*
G04 #@! TF.FilePolarity,Negative*
%FSLAX46Y46*%
G04 Gerber Fmt 4.6, Leading zero omitted, Abs format (unit mm)*
G04 Created by KiCad (PCBNEW (6.0.8)) date 2023-01-21 21:03:47*
%MOMM*%
%LPD*%
G01*
G04 APERTURE LIST*
G04 Aperture macros list*
%AMRoundRect*
0 Rectangle with rounded corners*
0 $1 Rounding radius*
0 $2 $3 $4 $5 $6 $7 $8 $9 X,Y pos of 4 corners*
0 Add a 4 corners polygon primitive as box body*
4,1,4,$2,$3,$4,$5,$6,$7,$8,$9,$2,$3,0*
0 Add four circle primitives for the rounded corners*
1,1,$1+$1,$2,$3*
1,1,$1+$1,$4,$5*
1,1,$1+$1,$6,$7*
1,1,$1+$1,$8,$9*
0 Add four rect primitives between the rounded corners*
20,1,$1+$1,$2,$3,$4,$5,0*
20,1,$1+$1,$4,$5,$6,$7,0*
20,1,$1+$1,$6,$7,$8,$9,0*
20,1,$1+$1,$8,$9,$2,$3,0*%
%AMFreePoly0*
4,1,22,0.550000,-0.750000,0.000000,-0.750000,0.000000,-0.745033,-0.079941,-0.743568,-0.215256,-0.701293,-0.333266,-0.622738,-0.424486,-0.514219,-0.481581,-0.384460,-0.499164,-0.250000,-0.500000,-0.250000,-0.500000,0.250000,-0.499164,0.250000,-0.499963,0.256109,-0.478152,0.396186,-0.417904,0.524511,-0.324060,0.630769,-0.204165,0.706417,-0.067858,0.745374,0.000000,0.744959,0.000000,0.750000,
0.550000,0.750000,0.550000,-0.750000,0.550000,-0.750000,$1*%
%AMFreePoly1*
4,1,20,0.000000,0.744959,0.073905,0.744508,0.209726,0.703889,0.328688,0.626782,0.421226,0.519385,0.479903,0.390333,0.500000,0.250000,0.500000,-0.250000,0.499851,-0.262216,0.476331,-0.402017,0.414519,-0.529596,0.319384,-0.634700,0.198574,-0.708877,0.061801,-0.746166,0.000000,-0.745033,0.000000,-0.750000,-0.550000,-0.750000,-0.550000,0.750000,0.000000,0.750000,0.000000,0.744959,
0.000000,0.744959,$1*%
G04 Aperture macros list end*
%ADD10RoundRect,0.250000X0.450000X-0.350000X0.450000X0.350000X-0.450000X0.350000X-0.450000X-0.350000X0*%
%ADD11RoundRect,0.250000X0.475000X-0.337500X0.475000X0.337500X-0.475000X0.337500X-0.475000X-0.337500X0*%
%ADD12R,2.000000X1.500000*%
%ADD13R,2.000000X3.800000*%
%ADD14RoundRect,0.250000X-0.600000X-0.725000X0.600000X-0.725000X0.600000X0.725000X-0.600000X0.725000X0*%
%ADD15O,1.700000X1.950000*%
%ADD16RoundRect,0.250000X0.450000X-0.325000X0.450000X0.325000X-0.450000X0.325000X-0.450000X-0.325000X0*%
%ADD17RoundRect,0.250000X0.350000X0.450000X-0.350000X0.450000X-0.350000X-0.450000X0.350000X-0.450000X0*%
%ADD18RoundRect,0.250000X0.600000X0.725000X-0.600000X0.725000X-0.600000X-0.725000X0.600000X-0.725000X0*%
%ADD19RoundRect,0.250000X-0.475000X0.337500X-0.475000X-0.337500X0.475000X-0.337500X0.475000X0.337500X0*%
%ADD20R,1.700000X1.700000*%
%ADD21O,1.700000X1.700000*%
%ADD22RoundRect,0.250000X-0.600000X-0.750000X0.600000X-0.750000X0.600000X0.750000X-0.600000X0.750000X0*%
%ADD23O,1.700000X2.000000*%
%ADD24C,5.100000*%
%ADD25RoundRect,0.250000X-0.337500X-0.475000X0.337500X-0.475000X0.337500X0.475000X-0.337500X0.475000X0*%
%ADD26C,1.600000*%
%ADD27R,1.500000X1.500000*%
%ADD28C,1.500000*%
%ADD29RoundRect,0.250000X0.600000X0.750000X-0.600000X0.750000X-0.600000X-0.750000X0.600000X-0.750000X0*%
%ADD30RoundRect,0.150000X0.150000X-0.587500X0.150000X0.587500X-0.150000X0.587500X-0.150000X-0.587500X0*%
%ADD31RoundRect,0.250000X-0.450000X0.350000X-0.450000X-0.350000X0.450000X-0.350000X0.450000X0.350000X0*%
%ADD32C,6.000000*%
%ADD33C,3.500000*%
%ADD34R,3.500000X3.500000*%
%ADD35RoundRect,0.750000X-1.000000X0.750000X-1.000000X-0.750000X1.000000X-0.750000X1.000000X0.750000X0*%
%ADD36RoundRect,0.875000X-0.875000X0.875000X-0.875000X-0.875000X0.875000X-0.875000X0.875000X0.875000X0*%
%ADD37R,1.600000X1.600000*%
%ADD38R,1.500000X1.050000*%
%ADD39O,1.500000X1.050000*%
%ADD40R,1.400000X1.400000*%
%ADD41C,1.400000*%
%ADD42O,1.500000X1.500000*%
%ADD43R,1.800000X1.800000*%
%ADD44C,1.800000*%
%ADD45R,1.500000X0.550000*%
%ADD46R,0.550000X1.500000*%
%ADD47C,5.800000*%
%ADD48O,3.500000X7.000000*%
%ADD49O,1.600000X2.500000*%
%ADD50R,1.600000X2.180000*%
%ADD51C,4.000000*%
%ADD52C,2.000000*%
%ADD53C,1.350000*%
%ADD54R,1.800000X1.350000*%
%ADD55C,2.200000*%
%ADD56C,0.500000*%
%ADD57R,1.130000X1.130000*%
%ADD58C,1.130000*%
%ADD59R,3.800000X1.200000*%
%ADD60R,3.800000X1.400000*%
%ADD61FreePoly0,180.000000*%
%ADD62R,1.000000X1.500000*%
%ADD63FreePoly1,180.000000*%
G04 APERTURE END LIST*
D10*
X83165000Y-114880800D03*
X83165000Y-112880800D03*
D11*
X111125000Y-89003800D03*
X111125000Y-86928800D03*
D12*
X65430000Y-71061300D03*
D13*
X71730000Y-73361300D03*
D12*
X65430000Y-73361300D03*
X65430000Y-75661300D03*
D14*
X89575000Y-120080300D03*
D15*
X92075000Y-120080300D03*
X94575000Y-120080300D03*
D16*
X52959000Y-62099300D03*
X52959000Y-60049300D03*
D17*
X155278000Y-114001300D03*
X153278000Y-114001300D03*
D18*
X129159000Y-82918300D03*
D15*
X126659000Y-82918300D03*
X124159000Y-82918300D03*
D19*
X119634000Y-97723800D03*
X119634000Y-99798800D03*
D20*
X161925000Y-107651300D03*
D21*
X161925000Y-110191300D03*
D22*
X109855000Y-120080300D03*
D23*
X112355000Y-120080300D03*
D24*
X162895000Y-100646300D03*
X162895000Y-100646300D03*
D25*
X110087500Y-108159300D03*
X112162500Y-108159300D03*
D10*
X94615000Y-114874300D03*
X94615000Y-112874300D03*
D26*
X80645000Y-65332300D03*
X78105000Y-65332300D03*
X73025000Y-65332300D03*
X67945000Y-65332300D03*
D27*
X60330000Y-65301300D03*
D28*
X62870000Y-65301300D03*
X65410000Y-65301300D03*
X67950000Y-65301300D03*
D20*
X157480000Y-107651300D03*
D21*
X157480000Y-110191300D03*
D24*
X69895000Y-100646300D03*
X69895000Y-100646300D03*
D20*
X161417000Y-94321300D03*
D21*
X161417000Y-91781300D03*
D29*
X78780000Y-40231300D03*
D23*
X76280000Y-40231300D03*
D10*
X106426000Y-86204300D03*
X106426000Y-84204300D03*
D14*
X90103000Y-81885300D03*
D15*
X92603000Y-81885300D03*
X95103000Y-81885300D03*
X97603000Y-81885300D03*
D14*
X137868000Y-120097300D03*
D15*
X140368000Y-120097300D03*
X142868000Y-120097300D03*
X145368000Y-120097300D03*
X147868000Y-120097300D03*
X150368000Y-120097300D03*
D10*
X116586000Y-91411300D03*
X116586000Y-89411300D03*
D30*
X76774000Y-48898800D03*
X78674000Y-48898800D03*
X77724000Y-47023800D03*
D20*
X86131000Y-89547300D03*
D21*
X86131000Y-92087300D03*
X86131000Y-94627300D03*
X86131000Y-97167300D03*
X86131000Y-99707300D03*
X86131000Y-102247300D03*
D31*
X66655000Y-109705800D03*
X66655000Y-111705800D03*
D24*
X69895000Y-45646300D03*
X69895000Y-45646300D03*
D19*
X74168000Y-94051300D03*
X74168000Y-96126300D03*
D32*
X162395000Y-127646300D03*
X162395000Y-127646300D03*
D33*
X162395000Y-127646300D03*
D31*
X74168000Y-82146300D03*
X74168000Y-84146300D03*
D10*
X74145000Y-48961300D03*
X74145000Y-46961300D03*
D34*
X87145000Y-50396300D03*
D35*
X87145000Y-44396300D03*
D36*
X82445000Y-47396300D03*
D17*
X159342000Y-114001300D03*
X157342000Y-114001300D03*
X54086000Y-46342300D03*
X52086000Y-46342300D03*
D37*
X62865000Y-55266300D03*
D26*
X60365000Y-55266300D03*
D22*
X100985000Y-120080300D03*
D23*
X103485000Y-120080300D03*
D32*
X52395000Y-39646300D03*
D33*
X52395000Y-39646300D03*
D32*
X52395000Y-39646300D03*
D38*
X120650000Y-92697300D03*
D39*
X120650000Y-91427300D03*
X120650000Y-90157300D03*
D20*
X141605000Y-102571300D03*
D21*
X141605000Y-100031300D03*
D40*
X145462500Y-89908800D03*
D41*
X145462500Y-97528800D03*
X145462500Y-102608800D03*
X145462500Y-107688800D03*
X153082500Y-107688800D03*
X153082500Y-102608800D03*
X153082500Y-97528800D03*
X153082500Y-89908800D03*
D19*
X90043000Y-90643800D03*
X90043000Y-92718800D03*
D14*
X118845000Y-120080300D03*
D15*
X121345000Y-120080300D03*
X123845000Y-120080300D03*
X126345000Y-120080300D03*
X128845000Y-120080300D03*
X131345000Y-120080300D03*
D31*
X64242000Y-105895800D03*
X64242000Y-107895800D03*
D14*
X78125000Y-120086800D03*
D15*
X80625000Y-120086800D03*
X83125000Y-120086800D03*
D27*
X126497000Y-87363300D03*
D42*
X118877000Y-87363300D03*
D14*
X52765000Y-120086800D03*
D15*
X55265000Y-120086800D03*
X57765000Y-120086800D03*
D18*
X159345000Y-82886300D03*
D15*
X156845000Y-82886300D03*
X154345000Y-82886300D03*
D19*
X77724000Y-94051300D03*
X77724000Y-96126300D03*
D14*
X101005000Y-111825300D03*
D15*
X103505000Y-111825300D03*
X106005000Y-111825300D03*
D14*
X64175000Y-120086800D03*
D15*
X66675000Y-120086800D03*
X69175000Y-120086800D03*
X71675000Y-120086800D03*
D43*
X54615000Y-50406300D03*
D44*
X52075000Y-50406300D03*
D45*
X101615000Y-94126300D03*
X101615000Y-94926300D03*
X101615000Y-95726300D03*
X101615000Y-96526300D03*
X101615000Y-97326300D03*
X101615000Y-98126300D03*
X101615000Y-98926300D03*
X101615000Y-99726300D03*
X101615000Y-100526300D03*
X101615000Y-101326300D03*
X101615000Y-102126300D03*
D46*
X103315000Y-103826300D03*
X104115000Y-103826300D03*
X104915000Y-103826300D03*
X105715000Y-103826300D03*
X106515000Y-103826300D03*
X107315000Y-103826300D03*
X108115000Y-103826300D03*
X108915000Y-103826300D03*
X109715000Y-103826300D03*
X110515000Y-103826300D03*
X111315000Y-103826300D03*
D45*
X113015000Y-102126300D03*
X113015000Y-101326300D03*
X113015000Y-100526300D03*
X113015000Y-99726300D03*
X113015000Y-98926300D03*
X113015000Y-98126300D03*
X113015000Y-97326300D03*
X113015000Y-96526300D03*
X113015000Y-95726300D03*
X113015000Y-94926300D03*
X113015000Y-94126300D03*
D46*
X111315000Y-92426300D03*
X110515000Y-92426300D03*
X109715000Y-92426300D03*
X108915000Y-92426300D03*
X108115000Y-92426300D03*
X107315000Y-92426300D03*
X106515000Y-92426300D03*
X105715000Y-92426300D03*
X104915000Y-92426300D03*
X104115000Y-92426300D03*
X103315000Y-92426300D03*
D31*
X110490000Y-112874300D03*
X110490000Y-114874300D03*
D32*
X52395000Y-127646300D03*
D33*
X52395000Y-127646300D03*
D32*
X52395000Y-127646300D03*
D19*
X90043000Y-94707800D03*
X90043000Y-96782800D03*
X64242000Y-100651300D03*
X64242000Y-102726300D03*
D47*
X128395000Y-74882800D03*
X153395000Y-74882800D03*
D48*
X145975000Y-44002800D03*
D47*
X128395000Y-39882800D03*
D48*
X135815000Y-44002800D03*
D47*
X153395000Y-39882800D03*
D14*
X138395000Y-69782800D03*
D15*
X140895000Y-69782800D03*
X143395000Y-69782800D03*
D49*
X140895000Y-49082800D03*
X138355000Y-49082800D03*
D10*
X93980000Y-95094300D03*
X93980000Y-93094300D03*
D14*
X156858000Y-120097300D03*
D15*
X159358000Y-120097300D03*
X161858000Y-120097300D03*
D50*
X52959000Y-77475300D03*
X52959000Y-68295300D03*
D11*
X84455000Y-74398800D03*
X84455000Y-72323800D03*
D24*
X162895000Y-45646300D03*
X162895000Y-45646300D03*
D11*
X122809000Y-101703800D03*
X122809000Y-99628800D03*
D20*
X78730800Y-85064500D03*
D21*
X81270800Y-85064500D03*
X78730800Y-87604500D03*
X81270800Y-87604500D03*
X78730800Y-90144500D03*
X81270800Y-90144500D03*
D37*
X59690000Y-75647300D03*
D26*
X59690000Y-73147300D03*
D51*
X61008500Y-45615100D03*
D52*
X70588500Y-50425100D03*
D41*
X68048500Y-50425100D03*
X62968500Y-50425100D03*
D52*
X60428500Y-50425100D03*
D32*
X162395000Y-39646300D03*
D33*
X162395000Y-39646300D03*
D32*
X162395000Y-39646300D03*
D47*
X95958000Y-39882800D03*
X120958000Y-39882800D03*
X95958000Y-74882800D03*
D48*
X113538000Y-44002800D03*
X103378000Y-44002800D03*
D47*
X120958000Y-74882800D03*
D14*
X105958000Y-69782800D03*
D15*
X108458000Y-69782800D03*
X110958000Y-69782800D03*
D49*
X108458000Y-49082800D03*
X105918000Y-49082800D03*
D40*
X130222500Y-89908800D03*
D41*
X130222500Y-97528800D03*
X130222500Y-102608800D03*
X130222500Y-107688800D03*
X137842500Y-107688800D03*
X137842500Y-102608800D03*
X137842500Y-97528800D03*
X137842500Y-89908800D03*
D53*
X70138500Y-96058800D03*
D54*
X71138500Y-96058800D03*
D53*
X70138500Y-94058800D03*
D54*
X71138500Y-94058800D03*
D53*
X70138500Y-92058800D03*
D54*
X71138500Y-92058800D03*
D53*
X70138500Y-90058800D03*
D54*
X71138500Y-90058800D03*
D53*
X70138500Y-88058800D03*
D54*
X71138500Y-88058800D03*
D53*
X70138500Y-86058800D03*
D54*
X71138500Y-86058800D03*
D53*
X70138500Y-84058800D03*
D54*
X71138500Y-84058800D03*
X71138500Y-82058800D03*
D53*
X70138500Y-82058800D03*
D55*
X52394700Y-88059200D03*
D56*
X52115300Y-90548400D03*
X52166100Y-85570000D03*
D57*
X52737000Y-102831800D03*
D58*
X52737000Y-105371800D03*
X52737000Y-107911800D03*
X52737000Y-110451800D03*
X60761000Y-110451800D03*
X60761000Y-107911800D03*
X60761000Y-105371800D03*
X60761000Y-102831800D03*
D37*
X78105000Y-74631300D03*
D26*
X78105000Y-72131300D03*
D59*
X91059000Y-103902900D03*
D60*
X91059000Y-101402900D03*
D59*
X91059000Y-98902900D03*
D20*
X126365000Y-102571300D03*
D21*
X126365000Y-100031300D03*
D61*
X69499000Y-79108300D03*
D62*
X68199000Y-79108300D03*
D63*
X66899000Y-79108300D03*
D20*
X156972000Y-94326300D03*
D21*
X156972000Y-91786300D03*
M02*
