G04 #@! TF.GenerationSoftware,KiCad,Pcbnew,(6.0.8)*
G04 #@! TF.CreationDate,2023-01-21T21:03:47+01:00*
G04 #@! TF.ProjectId,HB-UNI-SEN-POOL_2023_05,48422d55-4e49-42d5-9345-4e2d504f4f4c,rev?*
G04 #@! TF.SameCoordinates,Original*
G04 #@! TF.FileFunction,Paste,Top*
G04 #@! TF.FilePolarity,Positive*
%FSLAX46Y46*%
G04 Gerber Fmt 4.6, Leading zero omitted, Abs format (unit mm)*
G04 Created by KiCad (PCBNEW (6.0.8)) date 2023-01-21 21:03:47*
%MOMM*%
%LPD*%
G01*
G04 APERTURE LIST*
G04 Aperture macros list*
%AMRoundRect*
0 Rectangle with rounded corners*
0 $1 Rounding radius*
0 $2 $3 $4 $5 $6 $7 $8 $9 X,Y pos of 4 corners*
0 Add a 4 corners polygon primitive as box body*
4,1,4,$2,$3,$4,$5,$6,$7,$8,$9,$2,$3,0*
0 Add four circle primitives for the rounded corners*
1,1,$1+$1,$2,$3*
1,1,$1+$1,$4,$5*
1,1,$1+$1,$6,$7*
1,1,$1+$1,$8,$9*
0 Add four rect primitives between the rounded corners*
20,1,$1+$1,$2,$3,$4,$5,0*
20,1,$1+$1,$4,$5,$6,$7,0*
20,1,$1+$1,$6,$7,$8,$9,0*
20,1,$1+$1,$8,$9,$2,$3,0*%
G04 Aperture macros list end*
%ADD10RoundRect,0.250000X0.450000X-0.350000X0.450000X0.350000X-0.450000X0.350000X-0.450000X-0.350000X0*%
%ADD11RoundRect,0.250000X0.475000X-0.337500X0.475000X0.337500X-0.475000X0.337500X-0.475000X-0.337500X0*%
%ADD12R,2.000000X1.500000*%
%ADD13R,2.000000X3.800000*%
%ADD14RoundRect,0.250000X0.450000X-0.325000X0.450000X0.325000X-0.450000X0.325000X-0.450000X-0.325000X0*%
%ADD15RoundRect,0.250000X0.350000X0.450000X-0.350000X0.450000X-0.350000X-0.450000X0.350000X-0.450000X0*%
%ADD16RoundRect,0.250000X-0.475000X0.337500X-0.475000X-0.337500X0.475000X-0.337500X0.475000X0.337500X0*%
%ADD17RoundRect,0.250000X-0.337500X-0.475000X0.337500X-0.475000X0.337500X0.475000X-0.337500X0.475000X0*%
%ADD18RoundRect,0.150000X0.150000X-0.587500X0.150000X0.587500X-0.150000X0.587500X-0.150000X-0.587500X0*%
%ADD19RoundRect,0.250000X-0.450000X0.350000X-0.450000X-0.350000X0.450000X-0.350000X0.450000X0.350000X0*%
%ADD20R,1.500000X0.550000*%
%ADD21R,0.550000X1.500000*%
%ADD22R,1.600000X2.180000*%
%ADD23C,0.500000*%
%ADD24R,3.800000X1.200000*%
%ADD25R,3.800000X1.400000*%
G04 APERTURE END LIST*
D10*
X83165000Y-114880800D03*
X83165000Y-112880800D03*
D11*
X111125000Y-89003800D03*
X111125000Y-86928800D03*
D12*
X65430000Y-71061300D03*
D13*
X71730000Y-73361300D03*
D12*
X65430000Y-73361300D03*
X65430000Y-75661300D03*
D14*
X52959000Y-62099300D03*
X52959000Y-60049300D03*
D15*
X155278000Y-114001300D03*
X153278000Y-114001300D03*
D16*
X119634000Y-97723800D03*
X119634000Y-99798800D03*
D17*
X110087500Y-108159300D03*
X112162500Y-108159300D03*
D10*
X94615000Y-114874300D03*
X94615000Y-112874300D03*
X106426000Y-86204300D03*
X106426000Y-84204300D03*
X116586000Y-91411300D03*
X116586000Y-89411300D03*
D18*
X76774000Y-48898800D03*
X78674000Y-48898800D03*
X77724000Y-47023800D03*
D19*
X66655000Y-109705800D03*
X66655000Y-111705800D03*
D16*
X74168000Y-94051300D03*
X74168000Y-96126300D03*
D19*
X74168000Y-82146300D03*
X74168000Y-84146300D03*
D10*
X74145000Y-48961300D03*
X74145000Y-46961300D03*
D15*
X159342000Y-114001300D03*
X157342000Y-114001300D03*
X54086000Y-46342300D03*
X52086000Y-46342300D03*
D16*
X90043000Y-90643800D03*
X90043000Y-92718800D03*
D19*
X64242000Y-105895800D03*
X64242000Y-107895800D03*
D16*
X77724000Y-94051300D03*
X77724000Y-96126300D03*
D20*
X101615000Y-94126300D03*
X101615000Y-94926300D03*
X101615000Y-95726300D03*
X101615000Y-96526300D03*
X101615000Y-97326300D03*
X101615000Y-98126300D03*
X101615000Y-98926300D03*
X101615000Y-99726300D03*
X101615000Y-100526300D03*
X101615000Y-101326300D03*
X101615000Y-102126300D03*
D21*
X103315000Y-103826300D03*
X104115000Y-103826300D03*
X104915000Y-103826300D03*
X105715000Y-103826300D03*
X106515000Y-103826300D03*
X107315000Y-103826300D03*
X108115000Y-103826300D03*
X108915000Y-103826300D03*
X109715000Y-103826300D03*
X110515000Y-103826300D03*
X111315000Y-103826300D03*
D20*
X113015000Y-102126300D03*
X113015000Y-101326300D03*
X113015000Y-100526300D03*
X113015000Y-99726300D03*
X113015000Y-98926300D03*
X113015000Y-98126300D03*
X113015000Y-97326300D03*
X113015000Y-96526300D03*
X113015000Y-95726300D03*
X113015000Y-94926300D03*
X113015000Y-94126300D03*
D21*
X111315000Y-92426300D03*
X110515000Y-92426300D03*
X109715000Y-92426300D03*
X108915000Y-92426300D03*
X108115000Y-92426300D03*
X107315000Y-92426300D03*
X106515000Y-92426300D03*
X105715000Y-92426300D03*
X104915000Y-92426300D03*
X104115000Y-92426300D03*
X103315000Y-92426300D03*
D19*
X110490000Y-112874300D03*
X110490000Y-114874300D03*
D16*
X90043000Y-94707800D03*
X90043000Y-96782800D03*
X64242000Y-100651300D03*
X64242000Y-102726300D03*
D10*
X93980000Y-95094300D03*
X93980000Y-93094300D03*
D22*
X52959000Y-77475300D03*
X52959000Y-68295300D03*
D11*
X84455000Y-74398800D03*
X84455000Y-72323800D03*
X122809000Y-101703800D03*
X122809000Y-99628800D03*
D23*
X52115300Y-90548400D03*
X52166100Y-85570000D03*
D24*
X91059000Y-103902900D03*
D25*
X91059000Y-101402900D03*
D24*
X91059000Y-98902900D03*
M02*
