G04 #@! TF.GenerationSoftware,KiCad,Pcbnew,(6.0.8)*
G04 #@! TF.CreationDate,2023-01-21T21:03:47+01:00*
G04 #@! TF.ProjectId,HB-UNI-SEN-POOL_2023_05,48422d55-4e49-42d5-9345-4e2d504f4f4c,rev?*
G04 #@! TF.SameCoordinates,Original*
G04 #@! TF.FileFunction,Soldermask,Bot*
G04 #@! TF.FilePolarity,Negative*
%FSLAX46Y46*%
G04 Gerber Fmt 4.6, Leading zero omitted, Abs format (unit mm)*
G04 Created by KiCad (PCBNEW (6.0.8)) date 2023-01-21 21:03:47*
%MOMM*%
%LPD*%
G01*
G04 APERTURE LIST*
G04 Aperture macros list*
%AMRoundRect*
0 Rectangle with rounded corners*
0 $1 Rounding radius*
0 $2 $3 $4 $5 $6 $7 $8 $9 X,Y pos of 4 corners*
0 Add a 4 corners polygon primitive as box body*
4,1,4,$2,$3,$4,$5,$6,$7,$8,$9,$2,$3,0*
0 Add four circle primitives for the rounded corners*
1,1,$1+$1,$2,$3*
1,1,$1+$1,$4,$5*
1,1,$1+$1,$6,$7*
1,1,$1+$1,$8,$9*
0 Add four rect primitives between the rounded corners*
20,1,$1+$1,$2,$3,$4,$5,0*
20,1,$1+$1,$4,$5,$6,$7,0*
20,1,$1+$1,$6,$7,$8,$9,0*
20,1,$1+$1,$8,$9,$2,$3,0*%
G04 Aperture macros list end*
%ADD10RoundRect,0.250000X-0.600000X-0.725000X0.600000X-0.725000X0.600000X0.725000X-0.600000X0.725000X0*%
%ADD11O,1.700000X1.950000*%
%ADD12RoundRect,0.250000X0.600000X0.725000X-0.600000X0.725000X-0.600000X-0.725000X0.600000X-0.725000X0*%
%ADD13R,1.700000X1.700000*%
%ADD14O,1.700000X1.700000*%
%ADD15RoundRect,0.250000X-0.600000X-0.750000X0.600000X-0.750000X0.600000X0.750000X-0.600000X0.750000X0*%
%ADD16O,1.700000X2.000000*%
%ADD17C,5.100000*%
%ADD18C,1.600000*%
%ADD19R,1.500000X1.500000*%
%ADD20C,1.500000*%
%ADD21RoundRect,0.250000X0.600000X0.750000X-0.600000X0.750000X-0.600000X-0.750000X0.600000X-0.750000X0*%
%ADD22C,6.000000*%
%ADD23C,3.500000*%
%ADD24R,3.500000X3.500000*%
%ADD25RoundRect,0.750000X-1.000000X0.750000X-1.000000X-0.750000X1.000000X-0.750000X1.000000X0.750000X0*%
%ADD26RoundRect,0.875000X-0.875000X0.875000X-0.875000X-0.875000X0.875000X-0.875000X0.875000X0.875000X0*%
%ADD27R,1.600000X1.600000*%
%ADD28R,1.500000X1.050000*%
%ADD29O,1.500000X1.050000*%
%ADD30R,1.400000X1.400000*%
%ADD31C,1.400000*%
%ADD32O,1.500000X1.500000*%
%ADD33R,1.800000X1.800000*%
%ADD34C,1.800000*%
%ADD35C,5.800000*%
%ADD36O,3.500000X7.000000*%
%ADD37O,1.600000X2.500000*%
%ADD38C,4.000000*%
%ADD39C,2.000000*%
%ADD40C,1.350000*%
%ADD41C,2.200000*%
%ADD42R,1.130000X1.130000*%
%ADD43C,1.130000*%
G04 APERTURE END LIST*
D10*
X89575000Y-120080300D03*
D11*
X92075000Y-120080300D03*
X94575000Y-120080300D03*
D12*
X129159000Y-82918300D03*
D11*
X126659000Y-82918300D03*
X124159000Y-82918300D03*
D13*
X161925000Y-107651300D03*
D14*
X161925000Y-110191300D03*
D15*
X109855000Y-120080300D03*
D16*
X112355000Y-120080300D03*
D17*
X162895000Y-100646300D03*
X162895000Y-100646300D03*
D18*
X80645000Y-65332300D03*
X78105000Y-65332300D03*
X73025000Y-65332300D03*
X67945000Y-65332300D03*
D19*
X60330000Y-65301300D03*
D20*
X62870000Y-65301300D03*
X65410000Y-65301300D03*
X67950000Y-65301300D03*
D13*
X157480000Y-107651300D03*
D14*
X157480000Y-110191300D03*
D17*
X69895000Y-100646300D03*
X69895000Y-100646300D03*
D13*
X161417000Y-94321300D03*
D14*
X161417000Y-91781300D03*
D21*
X78780000Y-40231300D03*
D16*
X76280000Y-40231300D03*
D10*
X90103000Y-81885300D03*
D11*
X92603000Y-81885300D03*
X95103000Y-81885300D03*
X97603000Y-81885300D03*
D10*
X137868000Y-120097300D03*
D11*
X140368000Y-120097300D03*
X142868000Y-120097300D03*
X145368000Y-120097300D03*
X147868000Y-120097300D03*
X150368000Y-120097300D03*
D13*
X86131000Y-89547300D03*
D14*
X86131000Y-92087300D03*
X86131000Y-94627300D03*
X86131000Y-97167300D03*
X86131000Y-99707300D03*
X86131000Y-102247300D03*
D17*
X69895000Y-45646300D03*
X69895000Y-45646300D03*
D22*
X162395000Y-127646300D03*
D23*
X162395000Y-127646300D03*
D24*
X87145000Y-50396300D03*
D25*
X87145000Y-44396300D03*
D26*
X82445000Y-47396300D03*
D27*
X62865000Y-55266300D03*
D18*
X60365000Y-55266300D03*
D15*
X100985000Y-120080300D03*
D16*
X103485000Y-120080300D03*
D22*
X52395000Y-39646300D03*
D23*
X52395000Y-39646300D03*
D28*
X120650000Y-92697300D03*
D29*
X120650000Y-91427300D03*
X120650000Y-90157300D03*
D13*
X141605000Y-102571300D03*
D14*
X141605000Y-100031300D03*
D30*
X145462500Y-89908800D03*
D31*
X145462500Y-97528800D03*
X145462500Y-102608800D03*
X145462500Y-107688800D03*
X153082500Y-107688800D03*
X153082500Y-102608800D03*
X153082500Y-97528800D03*
X153082500Y-89908800D03*
D10*
X118845000Y-120080300D03*
D11*
X121345000Y-120080300D03*
X123845000Y-120080300D03*
X126345000Y-120080300D03*
X128845000Y-120080300D03*
X131345000Y-120080300D03*
D10*
X78125000Y-120086800D03*
D11*
X80625000Y-120086800D03*
X83125000Y-120086800D03*
D19*
X126497000Y-87363300D03*
D32*
X118877000Y-87363300D03*
D10*
X52765000Y-120086800D03*
D11*
X55265000Y-120086800D03*
X57765000Y-120086800D03*
D12*
X159345000Y-82886300D03*
D11*
X156845000Y-82886300D03*
X154345000Y-82886300D03*
D10*
X101005000Y-111825300D03*
D11*
X103505000Y-111825300D03*
X106005000Y-111825300D03*
D10*
X64175000Y-120086800D03*
D11*
X66675000Y-120086800D03*
X69175000Y-120086800D03*
X71675000Y-120086800D03*
D33*
X54615000Y-50406300D03*
D34*
X52075000Y-50406300D03*
D23*
X52395000Y-127646300D03*
D22*
X52395000Y-127646300D03*
D35*
X128395000Y-74882800D03*
X153395000Y-74882800D03*
D36*
X145975000Y-44002800D03*
D35*
X128395000Y-39882800D03*
D36*
X135815000Y-44002800D03*
D35*
X153395000Y-39882800D03*
D10*
X138395000Y-69782800D03*
D11*
X140895000Y-69782800D03*
X143395000Y-69782800D03*
D37*
X140895000Y-49082800D03*
X138355000Y-49082800D03*
D10*
X156858000Y-120097300D03*
D11*
X159358000Y-120097300D03*
X161858000Y-120097300D03*
D17*
X162895000Y-45646300D03*
X162895000Y-45646300D03*
D13*
X78730800Y-85064500D03*
D14*
X81270800Y-85064500D03*
X78730800Y-87604500D03*
X81270800Y-87604500D03*
X78730800Y-90144500D03*
X81270800Y-90144500D03*
D27*
X59690000Y-75647300D03*
D18*
X59690000Y-73147300D03*
D38*
X61008500Y-45615100D03*
D39*
X70588500Y-50425100D03*
D31*
X68048500Y-50425100D03*
X62968500Y-50425100D03*
D39*
X60428500Y-50425100D03*
D23*
X162395000Y-39646300D03*
D22*
X162395000Y-39646300D03*
D35*
X95958000Y-39882800D03*
X120958000Y-39882800D03*
X95958000Y-74882800D03*
D36*
X113538000Y-44002800D03*
X103378000Y-44002800D03*
D35*
X120958000Y-74882800D03*
D10*
X105958000Y-69782800D03*
D11*
X108458000Y-69782800D03*
X110958000Y-69782800D03*
D37*
X108458000Y-49082800D03*
X105918000Y-49082800D03*
D30*
X130222500Y-89908800D03*
D31*
X130222500Y-97528800D03*
X130222500Y-102608800D03*
X130222500Y-107688800D03*
X137842500Y-107688800D03*
X137842500Y-102608800D03*
X137842500Y-97528800D03*
X137842500Y-89908800D03*
D40*
X70138500Y-96058800D03*
X70138500Y-94058800D03*
X70138500Y-92058800D03*
X70138500Y-90058800D03*
X70138500Y-88058800D03*
X70138500Y-86058800D03*
X70138500Y-84058800D03*
X70138500Y-82058800D03*
D41*
X52394700Y-88059200D03*
D42*
X52737000Y-102831800D03*
D43*
X52737000Y-105371800D03*
X52737000Y-107911800D03*
X52737000Y-110451800D03*
X60761000Y-110451800D03*
X60761000Y-107911800D03*
X60761000Y-105371800D03*
X60761000Y-102831800D03*
D27*
X78105000Y-74631300D03*
D18*
X78105000Y-72131300D03*
D13*
X126365000Y-102571300D03*
D14*
X126365000Y-100031300D03*
D13*
X156972000Y-94326300D03*
D14*
X156972000Y-91786300D03*
M02*
